<?xml version="1.0" encoding="UTF-8"?>
<!DOCTYPE svg PUBLIC "-//W3C//DTD SVG 1.1//EN" "http://www.w3.org/Graphics/SVG/1.1/DTD/svg11.dtd">
<!-- Creator: CorelDRAW -->
<svg xmlns="http://www.w3.org/2000/svg" xml:space="preserve" width="64px" height="64px" shape-rendering="geometricPrecision" text-rendering="geometricPrecision" image-rendering="optimizeQuality" fill-rule="evenodd" clip-rule="evenodd"
viewBox="0 0 640 640"
 xmlns:xlink="http://www.w3.org/1999/xlink">
 <g id="Layer_x0020_1">
  <metadata id="CorelCorpID_0Corel-Layer"/>
  <path fill="#00ffff" d="M135.663 183.475l411.489 0c20.3861,0 36.8863,0.992138 49.4297,3.01185 13.9608,2.23231 23.6341,6.01188 28.961,11.3505l0.118112 0.106301c5.32684,5.32684 9.11822,14.9766 11.3505,28.8901 1.99609,12.4844 2.98823,28.8901 2.98823,49.1581l0 156.959c0,20.0317 -1.08663,36.2603 -3.22445,48.6502 -2.39767,13.9372 -6.40165,23.705 -11.9529,29.2563l-0.070867 0.0354335c-5.53944,5.45676 -15.2718,9.40169 -29.1263,11.7639 -12.3781,2.09058 -28.5712,3.15358 -48.473,3.15358l-454.305 0c-19.3467,0 -35.15,-1.18112 -47.3864,-3.50792 -13.6537,-2.61027 -23.4215,-6.86229 -29.2563,-12.697 -5.84653,-5.84653 -10.0867,-15.6026 -12.6852,-29.2445l-0.0118112 0c-2.33861,-12.2127 -3.50792,-28.0161 -3.50792,-47.2919l0 -157.077c0,-18.9687 0.897649,-34.5004 2.69295,-46.5596 1.98428,-13.2403 5.25597,-22.8664 9.79146,-28.8193l0.0118112 0.0118112c8.91743,-11.8112 29.2208,-17.7168 60.8039,-17.7168l0.271657 0.0354335 9.11822 0.259846c0.248035,-11.1143 1.57089,-21.7089 3.95674,-31.7602 2.65751,-11.256 6.74418,-21.9333 12.1891,-31.9728l2.87011 -5.27959 5.96464 0 40.217 0 21.8861 0 -14.2443 16.6301 -1.01576 1.19293 0.0118112 0c-6.31898,7.53553 -11.0671,15.7915 -14.1734,24.6853 -2.88193,8.20876 -4.45281,17.1498 -4.68903,26.7759zm411.607 36.6501l-454.423 0c-15.7915,0 -28.2523,0.673237 -37.3351,2.04333l-0.0472447 0c-7.35836,1.09844 -11.7521,2.33861 -13.0986,3.68508 -1.34647,1.35828 -2.58665,5.74023 -3.68508,13.0513 -1.3701,9.03554 -2.04333,21.4136 -2.04333,37.0871l0 156.722c0,15.8033 0.673237,28.2759 2.04333,37.3587 1.09844,7.37017 2.33861,11.7757 3.68508,13.1222 1.34647,1.35828 5.74023,2.59846 13.0986,3.6969l0.0472447 0c9.08279,1.35828 21.5318,2.05514 37.3351,2.05514l454.423 0c15.7797,0 28.2523,-0.696859 37.3115,-2.05514 7.32292,-1.09844 11.634,-2.29137 12.8269,-3.53154l0.0826782 -0.0826782c1.29923,-1.32285 2.52759,-5.74023 3.62603,-13.1695 1.34647,-9.08279 2.01971,-21.5554 2.01971,-37.3942l0 -156.722c0,-15.6734 -0.673237,-28.0397 -2.03152,-37.0871 -1.09844,-7.31111 -2.35042,-11.6931 -3.6969,-13.0513 -1.34647,-1.34647 -5.72842,-2.58665 -13.0513,-3.68508 -9.03554,-1.3701 -21.4136,-2.04333 -37.0871,-2.04333zm-454.541 29.209l41.2682 0 10.0985 0 0 10.0867 0 30.7209 20.9766 0 0 -30.7209 0 -10.0867 10.0867 0 41.4926 0 10.0867 0 0 10.0867 0 30.7209 21.0947 0 0 -30.7209 0 -10.0867 10.0867 0 41.5044 0 10.0867 0 0 10.0867 0 30.7209 20.9766 0 0 -30.7209 0 -10.0867 10.0867 0 41.1619 0 10.0867 0 0 10.0867 0 30.7209 21.4373 0 0 -30.7209 0 -10.0867 10.0867 0 41.1501 0 10.0867 0 0 10.0867 0 30.7209 20.9766 0 0 -30.7209 0 -10.0867 10.0985 0 41.4926 0 10.0867 0 0 10.0867 0 41.1619 0 10.0867 -10.0867 0 -30.7209 0 0 21.4255 30.7209 0 10.0867 0 0 10.0867 0 41.1619 0 10.0867 -10.0867 0 -41.4926 0 -10.0985 0 0 -10.0867 0 -30.7327 -20.9766 0 0 30.7327 0 10.0867 -10.0867 0 -41.1501 0 -10.0867 0 0 -10.0867 0 -30.7327 -21.4373 0 0 30.7327 0 10.0867 -10.0867 0 -41.1619 0 -10.0867 0 0 -10.0867 0 -30.7327 -20.9766 0 0 30.7327 0 10.0867 -10.0867 0 -41.5044 0 -10.0867 0 0 -10.0867 0 -30.7327 -21.0947 0 0 30.7327 0 10.0867 -10.0867 0 -41.4926 0 -10.0867 0 0 -10.0867 0 -30.7327 -20.9766 0 0 30.7327 0 10.0867 -10.0985 0 -41.2682 0 -10.0867 0 0 -10.0867 0 -41.1619 0 -10.0867 10.0867 0 30.4964 0 0 -21.4255 -30.4964 0 -10.0867 0 0 -10.0867 0 -41.1619 0 -10.0867 10.0867 0zm93.2019 82.4183l20.2916 0 0 -20.3979 -20.2916 0 0 20.3979zm82.4183 0l20.6341 0 0 -20.3979 -20.6341 0 0 20.3979zm82.6664 0l20.2916 0 0 -20.3979 -20.2916 0 0 20.3979zm82.7609 0l20.2916 0 0 -20.3979 -20.2916 0 0 20.3979zm-268.704 123.663l0 -41.5044 0 -10.0867 10.0867 0 289.338 0 10.0867 0 0 10.0867 0 41.5044 0 10.0867 -10.0867 0 -289.338 0 -10.0867 0 0 -10.0867z"/>
 </g>
</svg>
